<?xml version="1.0" encoding="UTF-8" standalone="no"?><!DOCTYPE svg PUBLIC "-//W3C//DTD SVG 1.1//EN" "http://www.w3.org/Graphics/SVG/1.1/DTD/svg11.dtd"><svg width="100%" height="100%" viewBox="0 0 78 82" version="1.1" xmlns="http://www.w3.org/2000/svg" xmlns:xlink="http://www.w3.org/1999/xlink" xml:space="preserve" xmlns:serif="http://www.serif.com/" style="fill-rule:evenodd;clip-rule:evenodd;stroke-linejoin:round;stroke-miterlimit:1.41421;"><g><path d="M41.722,79.592c-19.711,0.324 -27.026,-19.956 -18.75,-36.75c-8.244,-3.756 -22.96,-1.04 -21,-15c3.4,-5.34 13.554,-3.582 17.25,-6.75c-0.192,-3.058 -2.796,-3.704 -2.25,-7.5c12.807,-2.691 22.217,4.197 28.5,10.5c0.987,-10.21 6.489,-23.263 17.25,-21.75c5.435,0.764 12.726,9.251 12,15c-0.535,4.232 -5.503,4.737 -7.5,9c1.836,4.259 1.539,10.944 3,17.25c-5.169,3.793 -14.955,-1.118 -17.25,6c4.79,5.645 6.491,17.614 -1.5,21c-6.815,-1.297 -9.074,1.875 -12.75,-2.25c-2.511,4.931 3.914,5.609 3,11.25m2.25,-62.25c-5.438,-2.555 -19.797,-11.319 -29.25,-5.25c-1.311,2.564 -0.398,5.373 0.75,7.5c-24.538,1.917 -17.517,26.732 4.5,25.5c-9.402,18.903 4.392,41.711 24,36c0.147,-2.897 0.027,-5.527 -0.75,-7.5c14.337,3.215 22.113,-14.62 12.75,-24.75c3.898,-1.915 13.687,0.4 16.5,-4.5c1.76,-7.939 -3.484,-12.422 -1.5,-18.75c1.245,-3.973 6.377,-5.433 6.75,-9c0.931,-8.918 -9.969,-17.584 -18,-16.5c-8.478,1.144 -12.785,10.459 -15.75,17.25"/><path d="M52.972,25.592c1.49,1.51 3.547,2.453 4.5,4.5c2.163,-2.213 -1.7,-4.763 -4.5,-4.5" style="fill:#fff;"/><path d="M9.472,30.842c0.797,1.703 4.714,0.286 6.75,0.75c-2.448,-0.904 -5.092,-3.123 -6.75,-0.75" style="fill:#fff;"/><path d="M40.972,30.842c-0.589,-1.722 -4.643,-0.73 -3.75,1.5c2.392,0.643 2.319,-1.18 3.75,-1.5"/><path d="M7.222,32.342c2.152,3.847 8.342,3.658 12.75,5.25c0.677,-1.322 1.677,-2.323 3,-3c-5.968,-0.972 -9.514,-0.834 -15.75,-2.25" style="fill:#fff;"/><path d="M28.972,35.342c-2.616,-2.078 -7.704,-0.232 -7.5,3c2.577,-0.328 4.203,0.296 6,0.75c-0.111,-1.86 -0.141,-3.64 1.5,-3.75" style="fill:#fff;"/><path d="M29.722,41.342c-1.08,0.42 -1.83,1.17 -2.25,2.25c0.686,4.564 3.671,6.829 7.5,8.25c1.028,-4.828 -4.514,-5.436 -5.25,-10.5" style="fill:#fff;"/><path d="M50.722,45.092c-2.69,1.452 -2.748,-0.289 -5.25,-0.75c5.551,3.699 5.706,12.794 9.75,18c-0.161,-7.089 -2.774,-11.727 -4.5,-17.25"/><path d="M37.222,48.842c-2.02,0.887 0.003,3.911 0,5.25c2.119,-0.619 1.943,1.057 3.75,0.75c1.131,-4.381 -2.151,-4.35 -3.75,-6" style="fill:#fff;"/><path d="M25.972,49.592c-0.815,0.185 -0.51,1.491 -1.5,1.5c1.608,4.892 6.541,6.458 11.25,8.25c1.641,-5.155 -9.054,-4.436 -9.75,-9.75" style="fill:#fff;"/><path d="M26.722,58.592c-3.428,-0.025 -0.039,2.632 -0.75,4.5c2.565,1.435 8.984,4.081 10.5,0c-3.133,-1.618 -7.476,-2.025 -9.75,-4.5" style="fill:#fff;"/><path d="M35.722,67.592c-3.037,0.806 -5.214,0.806 -8.25,0c-0.116,1.865 1.178,2.322 1.5,3.75c2.124,-0.782 3.125,-0.782 5.25,0c0.319,-1.43 2.142,-1.357 1.5,-3.75" style="fill:#fff;"/><path d="M36.472,73.592l-3.75,0c-0.129,2.705 3.879,2.705 3.75,0" style="fill:#fff;"/><path d="M37.222,32.342c-0.893,-2.23 3.161,-3.222 3.75,-1.5c-1.431,0.32 -1.358,2.143 -3.75,1.5m18,12c-5.043,-3.108 -13.983,-13.354 -6,-19.5c-1.692,-0.559 -0.294,-4.207 -0.75,-6c-0.429,-7.442 21.09,-20.28 16.5,-6.75c-3.354,0.203 -3.558,-2.737 -3.75,-3.75c-5.796,2.204 -10.551,5.45 -11.25,12.75c3.42,-4.72 12.903,-9.202 20.25,-5.25l0,3.75c-1.878,1.087 -2.946,1.817 -5.25,0.75c-2.193,-1.21 1.196,-3.866 -0.75,-4.5c-5.387,1.613 -11.565,2.435 -12.75,8.25c3.794,-1.624 6.591,0.32 9.75,-1.5c2.824,0.926 4.242,3.258 6,5.25c-1.731,4.675 1.757,7.416 0.75,13.5c-3.282,4.032 -11.795,-0.222 -15,0c1.098,0.653 2.376,1.123 2.25,3m0,18c-4.044,-5.206 -4.199,-14.301 -9.75,-18c2.502,0.461 2.56,2.202 5.25,0.75c1.726,5.523 4.339,10.161 4.5,17.25m-15.75,15.75c-18.018,0.278 -19.933,-26.466 -13.5,-37.5c-8.556,-1.195 -17.568,-1.932 -21.75,-7.5c4.095,-5.404 11.657,-7.343 18.75,-9.75c-2.471,-1.03 -2.769,-4.231 -3.75,-6.75c13.518,-1.018 19.086,5.913 26.25,11.25c-5.419,0.419 -5.58,-4.42 -9,-6c0.418,1.832 2.901,1.598 2.25,4.5c-3.264,0.725 -5.455,-3.496 -8.25,-0.75c2.88,0.869 6.136,1.364 6.75,4.5c-1.115,2.517 -9.474,-0.404 -8.25,-2.25c1.27,0.78 5.007,2.925 6,1.5c-4.141,-2.563 -16.685,-5.457 -21,-0.75c1.395,0.69 9.279,3.181 7.5,0c3.45,1.301 8.268,1.232 11.25,3c-3.57,0.962 -8.453,-1.812 -9,0.75c4.724,0.743 8.025,0.743 12.75,0c-0.617,2.29 -2.109,1.799 -0.75,4.5c-2.538,0.288 -1.18,-3.319 -4.5,-2.25c-1.344,0.466 -3.387,4.034 -2.25,4.5c3.579,0.579 4.827,-1.173 8.25,-0.75c0.526,2.777 -3.207,1.294 -3.75,3c1.529,0.221 1.47,2.03 3,2.25c-0.128,-1.877 1.152,-2.347 2.25,-3c0.542,2.292 -0.767,2.734 -0.75,4.5c1.109,0.391 1.89,1.109 3,1.5c1.927,-0.073 1.072,-2.927 3,-3c0.881,1.988 -1.438,4.417 0,4.5c0.958,-0.041 1.038,-0.961 2.25,-0.75c1.033,3.467 2.722,6.277 3,10.5c-2.909,-0.091 -2.292,-3.709 -3.75,-5.25c-4.272,4.652 4.344,11.701 2.25,16.5c-2.957,-2.794 -3.919,-7.581 -6,-11.25c-4.464,2.132 0.078,8.402 -0.75,10.5c-1.088,-1.413 -1.103,-3.897 -3,-4.5c-2.08,4.901 0.315,10.277 1.5,14.25m-0.75,-9.75c3.676,4.125 5.935,0.953 12.75,2.25c7.991,-3.386 6.29,-15.355 1.5,-21c2.295,-7.118 12.081,-2.207 17.25,-6c-1.461,-6.306 -1.164,-12.991 -3,-17.25c1.997,-4.263 6.965,-4.768 7.5,-9c0.726,-5.749 -6.565,-14.236 -12,-15c-10.761,-1.513 -16.263,11.54 -17.25,21.75c-6.283,-6.303 -15.693,-13.191 -28.5,-10.5c-0.546,3.796 2.058,4.442 2.25,7.5c-3.696,3.168 -13.85,1.41 -17.25,6.75c-1.96,13.96 12.756,11.244 21,15c-8.276,16.794 -0.961,37.074 18.75,36.75c0.914,-5.641 -5.511,-6.319 -3,-11.25" style="fill:#fff;"/><path d="M32.722,73.592l3.75,0c0.129,2.705 -3.879,2.705 -3.75,0m1.5,-2.25c-2.125,-0.782 -3.126,-0.782 -5.25,0c-0.322,-1.428 -1.616,-1.885 -1.5,-3.75c3.036,0.806 5.213,0.806 8.25,0c0.642,2.393 -1.181,2.32 -1.5,3.75m2.25,-8.25c-1.516,4.081 -7.935,1.435 -10.5,0c0.711,-1.868 -2.678,-4.525 0.75,-4.5c2.274,2.475 6.617,2.882 9.75,4.5m-0.75,-3.75c-4.709,-1.792 -9.642,-3.358 -11.25,-8.25c0.99,-0.009 0.685,-1.315 1.5,-1.5c0.696,5.314 11.391,4.595 9.75,9.75m5.25,-4.5c-1.807,0.307 -1.631,-1.369 -3.75,-0.75c0.003,-1.339 -2.02,-4.363 0,-5.25c1.599,1.65 4.881,1.619 3.75,6m-6,-3c-3.829,-1.421 -6.814,-3.686 -7.5,-8.25c0.42,-1.08 1.17,-1.83 2.25,-2.25c0.736,5.064 6.278,5.672 5.25,10.5m-7.5,-12.75c-1.797,-0.454 -3.423,-1.078 -6,-0.75c-0.204,-3.232 4.884,-5.078 7.5,-3c-1.641,0.11 -1.611,1.89 -1.5,3.75m-4.5,-4.5c-1.323,0.677 -2.323,1.678 -3,3c-4.408,-1.592 -10.598,-1.403 -12.75,-5.25c6.236,1.416 9.782,1.278 15.75,2.25m-6.75,-3c-2.036,-0.464 -5.953,0.953 -6.75,-0.75c1.658,-2.373 4.302,-0.154 6.75,0.75m19.5,-9c3.626,4.124 -2.95,1.639 -5.25,-3c3.097,0.342 4.122,1.718 5.25,3m-6,-2.25c-1.335,0.415 -3.115,0.386 -3.75,1.5c2.504,0.134 4.21,2.504 5.25,0c0.179,1.07 1.234,1.265 1.5,2.25c-5.603,2.118 -10.468,-1.709 -9.75,-5.25c0.372,-0.118 4.182,2.101 5.25,0.75c-0.582,-0.168 -1.48,-0.02 -1.5,-0.75c1.396,0.104 2.506,0.494 3,1.5m8.25,43.5c1.897,0.603 1.912,3.087 3,4.5c0.828,-2.098 -3.714,-8.368 0.75,-10.5c2.081,3.669 3.043,8.456 6,11.25c2.094,-4.799 -6.522,-11.848 -2.25,-16.5c1.458,1.541 0.841,5.159 3.75,5.25c-0.278,-4.223 -1.967,-7.033 -3,-10.5c-1.212,-0.211 -1.292,0.709 -2.25,0.75c-1.438,-0.083 0.881,-2.512 0,-4.5c-1.928,0.073 -1.073,2.927 -3,3c-1.11,-0.391 -1.891,-1.109 -3,-1.5c-0.017,-1.766 1.292,-2.208 0.75,-4.5c-1.098,0.653 -2.378,1.123 -2.25,3c-1.53,-0.22 -1.471,-2.029 -3,-2.25c0.543,-1.706 4.276,-0.223 3.75,-3c-3.423,-0.423 -4.671,1.329 -8.25,0.75c-1.137,-0.466 0.906,-4.034 2.25,-4.5c3.32,-1.069 1.962,2.538 4.5,2.25c-1.359,-2.701 0.133,-2.21 0.75,-4.5c-4.725,0.743 -8.026,0.743 -12.75,0c0.547,-2.562 5.43,0.212 9,-0.75c-2.982,-1.768 -7.8,-1.699 -11.25,-3c1.779,3.181 -6.105,0.69 -7.5,0c4.315,-4.707 16.859,-1.813 21,0.75c-0.993,1.425 -4.73,-0.72 -6,-1.5c-1.224,1.846 7.135,4.767 8.25,2.25c-0.614,-3.136 -3.87,-3.631 -6.75,-4.5c2.795,-2.746 4.986,1.475 8.25,0.75c0.651,-2.902 -1.832,-2.668 -2.25,-4.5c3.42,1.58 3.581,6.419 9,6c-7.164,-5.337 -12.732,-12.268 -26.25,-11.25c0.981,2.519 1.279,5.72 3.75,6.75c-7.093,2.407 -14.655,4.346 -18.75,9.75c4.182,5.568 13.194,6.305 21.75,7.5c-6.433,11.034 -4.518,37.778 13.5,37.5c-1.185,-3.973 -3.58,-9.349 -1.5,-14.25"/><path d="M26.722,18.842c0.02,0.73 0.918,0.582 1.5,0.75c-1.068,1.351 -4.878,-0.868 -5.25,-0.75c-0.718,3.541 4.147,7.368 9.75,5.25c-0.266,-0.985 -1.321,-1.18 -1.5,-2.25c-1.04,2.504 -2.746,0.134 -5.25,0c0.635,-1.114 2.415,-1.085 3.75,-1.5c-0.494,-1.006 -1.604,-1.396 -3,-1.5" style="fill:#fff;"/><path d="M30.472,19.592c2.3,4.639 8.876,7.124 5.25,3c-1.128,-1.282 -2.153,-2.658 -5.25,-3" style="fill:#fff;"/><path d="M61.222,29.342c-1.063,0.142 1.189,5.54 -0.75,6.75c-7.136,0.386 -7.063,-6.437 -12.75,-7.5c-1.174,8.243 9.308,11.141 18,12c0.703,-5.953 -1.79,-8.71 -4.5,-11.25" style="fill:#fff;"/><path d="M65.722,40.592c-8.692,-0.859 -19.174,-3.757 -18,-12c5.687,1.063 5.614,7.886 12.75,7.5c1.939,-1.21 -0.313,-6.608 0.75,-6.75c2.71,2.54 5.203,5.297 4.5,11.25m-8.25,-10.5c-0.953,-2.047 -3.01,-2.99 -4.5,-4.5c2.8,-0.263 6.663,2.287 4.5,4.5m-4.5,11.25c3.205,-0.222 11.718,4.032 15,0c1.007,-6.084 -2.481,-8.825 -0.75,-13.5c-1.758,-1.992 -3.176,-4.324 -6,-5.25c-3.159,1.82 -5.956,-0.124 -9.75,1.5c1.185,-5.815 7.363,-6.637 12.75,-8.25c1.946,0.634 -1.443,3.29 0.75,4.5c2.304,1.067 3.372,0.337 5.25,-0.75l0,-3.75c-7.347,-3.952 -16.83,0.53 -20.25,5.25c0.699,-7.3 5.454,-10.546 11.25,-12.75c0.192,1.013 0.396,3.953 3.75,3.75c4.59,-13.53 -16.929,-0.692 -16.5,6.75c0.456,1.793 -0.942,5.441 0.75,6c-7.983,6.146 0.957,16.392 6,19.5c0.126,-1.877 -1.152,-2.347 -2.25,-3"/></g></svg>